Coordinates
version=1
nRows=10
nColumns=23
inDegrees=yes

Units are S.I. units (second, meters, Newtons, ...)
Angles are in degrees.

endheader
time	thorax_tilt	thorax_list	thorax_rotation	thorax_tx	thorax_ty	thorax_tz	sternoclavicular_r2	sternoclavicular_r3	unrotscap_r3	unrotscap_r2	acromioclavicular_r2	acromioclavicular_r3	acromioclavicular_r1	unrothum_r1	unrothum_r3	unrothum_r2	elv_angle	shoulder_elv	shoulder1_r2	shoulder_rot	elbow_flexion	pro_sup
      4.54400000	     -3.67070021	     -0.98277090	      8.07401749	     -0.40109735	      1.58743371	      0.03009782	    -19.30870060	      8.17720600	     -8.17823271	     19.30763499	     -3.90917720	     31.59342260	     14.20153964	    -14.20150375	    -31.59455745	      3.90941727	     68.76621361	     79.78305369	    -68.76607996	     26.59511690	     42.69999277	     -2.71543889
      4.54800000	     -3.67080181	     -0.98283372	      8.07398393	     -0.40109444	      1.58743319	      0.03009915	    -19.30864419	      8.17718077	     -8.17820111	     19.30755419	     -3.90917562	     31.59331706	     14.20148485	    -14.20145267	    -31.59443307	      3.90939145	     68.76600941	     79.78298611	    -68.76629094	     26.59505021	     42.69982637	     -2.71546508
      4.55200000	     -3.67095200	     -0.98290563	      8.07394505	     -0.40108823	      1.58743146	      0.03010220	    -19.30862348	      8.17717669	     -8.17817785	     19.30752562	     -3.90918180	     31.59327361	     14.20144428	    -14.20147075	    -31.59443012	      3.90937984	     68.76629165	     79.78272013	    -68.76598984	     26.59497441	     42.69960407	     -2.71549796
      4.55600000	     -3.67106807	     -0.98295677	      8.07391071	     -0.40108242	      1.58742981	      0.03010556	    -19.30857281	      8.17715592	     -8.17814525	     19.30745531	     -3.90918205	     31.59317573	     14.20138679	    -14.20144194	    -31.59434077	      3.90935716	     68.76591935	     79.78261508	    -68.76632651	     26.59492467	     42.69943665	     -2.71552157
      4.56000000	     -3.67506812	     -0.98513162	      8.07219153	     -0.40088871	      1.58738330	      0.03023113	    -19.30729260	      8.17663107	     -8.17754345	     19.30610171	     -3.90893292	     31.59101621	     14.20037227	    -14.20047666	    -31.59211865	      3.90906969	     68.76523738	     79.77731826	    -68.76530615	     26.59338648	     42.69343045	     -2.71635040
      4.56400000	     -3.67517819	     -0.98529559	      8.07204735	     -0.40089038	      1.58738563	      0.03023063	    -19.30731593	      8.17663523	     -8.17760403	     19.30620555	     -3.90888772	     31.59111447	     14.20048249	    -14.20043700	    -31.59215638	      3.90912879	     68.76525960	     79.77692078	    -68.76524646	     26.59333488	     42.69319482	     -2.71638578
      4.56800000	     -3.67525461	     -0.98541976	      8.07192525	     -0.40089030	      1.58738719	      0.03023248	    -19.30721451	      8.17659685	     -8.17751335	     19.30602069	     -3.90891438	     31.59089034	     14.20032244	    -14.20040003	    -31.59196385	      3.90905384	     68.76515261	     79.77699361	    -68.76529267	     26.59330371	     42.69301849	     -2.71641087
      4.57200000	     -3.67537056	     -0.98563356	      8.07169979	     -0.40088868	      1.58738975	      0.03023866	    -19.30729924	      8.17663842	     -8.17751879	     19.30605338	     -3.90895684	     31.59099656	     14.20033649	    -14.20047102	    -31.59206201	      3.90903925	     68.76522065	     79.77652311	    -68.76507706	     26.59326547	     42.69272649	     -2.71645021
      4.57600000	     -3.67542943	     -0.98576654	      8.07155104	     -0.40088717	      1.58739139	      0.03024393	    -19.30716288	      8.17658204	     -8.17745051	     19.30589719	     -3.90893889	     31.59076086	     14.20021874	    -14.20037337	    -31.59182372	      3.90899941	     68.76494543	     79.77664526	    -68.76523960	     26.59325028	     42.69255503	     -2.71647216
      4.58000000	     -3.67551140	     -0.98599210	      8.07128620	     -0.40088421	      1.58739431	      0.03025494	    -19.30724713	      8.17662549	     -8.17744586	     19.30591278	     -3.90898794	     31.59085342	     14.20021667	    -14.20044571	    -31.59190715	      3.90897552	     68.76517897	     79.77624204	    -68.76478556	     26.59323833	     42.69228070	     -2.71650526
